<svg height="465pt" viewBox="0 0 465.63217 465" width="465pt" xmlns="http://www.w3.org/2000/svg"><path d="m232.816406 107.160156c-69.574218 0-125.972656 56.398438-125.972656 125.972656 0 69.570313 56.402344 125.972657 125.972656 125.972657 69.574219 0 125.972656-56.402344 125.972656-125.972657-.078124-69.542968-56.433593-125.894531-125.972656-125.972656zm0 235.945313c-60.734375 0-109.972656-49.238281-109.972656-109.976563 0-60.734375 49.238281-109.972656 109.972656-109.96875 60.738282 0 109.972656 49.234375 109.972656 109.972656-.070312 60.707032-49.265624 109.902344-109.972656 109.972657zm0 0"/><path d="m462.257812 226.601562-56.292968-39.882812 28.832031-62.6875c1.085937-2.359375.957031-5.097656-.339844-7.34375-1.300781-2.25-3.609375-3.726562-6.195312-3.964844l-68.714844-6.320312-6.320313-68.71875c-.238281-2.585938-1.714843-4.894532-3.964843-6.191406-2.246094-1.300782-4.984375-1.429688-7.34375-.34375l-62.6875 28.835937-39.886719-56.292969c-1.5-2.117187-3.933594-3.375-6.527344-3.375s-5.027344 1.257813-6.527344 3.375l-39.886718 56.292969-62.6875-28.835937c-2.355469-1.085938-5.097656-.957032-7.34375.34375-2.25 1.296874-3.726563 3.609374-3.964844 6.191406l-6.316406 68.71875-68.71875 6.320312c-2.585938.238282-4.894532 1.714844-6.195313 3.960938-1.296875 2.25-1.425781 4.988281-.339843 7.347656l28.832031 62.6875-56.292969 39.882812c-2.117188 1.5-3.375 3.933594-3.375 6.53125 0 2.59375 1.257812 5.027344 3.375 6.527344l56.292969 39.882813-28.832031 62.6875c-1.085938 2.359375-.957032 5.097656.339843 7.347656 1.300781 2.246094 3.609375 3.722656 6.195313 3.960937l68.714844 6.320313 6.320312 68.71875c.238281 2.585937 1.714844 4.894531 3.964844 6.191406 2.246094 1.300781 4.984375 1.429688 7.34375.34375l62.6875-28.835937 39.886718 56.292968c1.5 2.117188 3.933594 3.375 6.527344 3.375s5.027344-1.257812 6.527344-3.375l39.886719-56.292968 62.6875 28.835937c2.359375 1.085938 5.097656.957031 7.34375-.34375 2.25-1.296875 3.726562-3.605469 3.964843-6.191406l6.316407-68.71875 68.71875-6.316406c2.585937-.238281 4.894531-1.71875 6.191406-3.964844 1.300781-2.25 1.429687-4.988281.34375-7.347656l-28.832031-62.6875 56.292968-39.882813c2.117188-1.5 3.375-3.933594 3.375-6.527344 0-2.597656-1.257812-5.03125-3.375-6.53125zm-70.960937 43.730469c-3.140625 2.226563-4.25 6.371094-2.640625 9.871094l26.882812 58.445313-64.082031 5.890624c-3.839843.355469-6.882812 3.394532-7.238281 7.234376l-5.890625 64.082031-58.445313-26.882813c-3.496093-1.609375-7.644531-.496094-9.871093 2.644532l-37.199219 52.5-37.199219-52.5c-2.226562-3.140626-6.375-4.253907-9.871093-2.644532l-58.4375 26.878906-5.886719-64.082031c-.355469-3.839843-3.394531-6.882812-7.238281-7.234375l-64.082032-5.890625 26.882813-58.445312c1.605469-3.5.496093-7.644531-2.644531-9.871094l-52.5-37.195313 52.5-37.203124c3.140624-2.222657 4.253906-6.371094 2.644531-9.867188l-26.886719-58.441406 64.082031-5.894532c3.839844-.351562 6.882813-3.394531 7.238281-7.234374l5.890626-64.082032 58.445312 26.882813c3.496094 1.609375 7.644531.5 9.871094-2.644531l37.199218-52.5 37.199219 52.5c2.226563 3.144531 6.375 4.253906 9.871094 2.644531l58.4375-26.882813 5.890625 64.082032c.355469 3.839843 3.398438 6.882812 7.238281 7.234374l64.078125 5.894532-26.878906 58.441406c-1.609375 3.5-.5 7.644531 2.640625 9.871094l52.5 37.199218zm0 0"/></svg>